<?xml version="1.0" encoding="iso-8859-1"?>
<!-- Generator: Adobe Illustrator 19.0.0, SVG Export Plug-In . SVG Version: 6.00 Build 0)  -->
<svg version="1.1" id="Capa_1" xmlns="http://www.w3.org/2000/svg" xmlns:xlink="http://www.w3.org/1999/xlink" x="0px" y="0px"
	 viewBox="0 0 512 512" style="enable-background:new 0 0 512 512;" xml:space="preserve">
<path style="fill:#EDEBED;" d="M348.256,0.001L74.322,0c-4.561,0-8.258,3.697-8.258,8.258v495.484c0,4.561,3.697,8.258,8.258,8.258
	h363.355c4.561,0,8.258-3.697,8.258-8.258L445.934,97.68c0-4.38-1.74-8.581-4.837-11.679L359.935,4.838
	C356.837,1.741,352.635,0.001,348.256,0.001z"/>
<g>
	<path style="fill:#E6646E;" d="M256.001,115.613c-22.766,0-41.29,18.524-41.29,41.29v24.774c0,22.766,18.524,41.29,41.29,41.29
		c22.766,0,41.29-18.524,41.29-41.29v-24.774C297.292,134.137,278.768,115.613,256.001,115.613z M280.776,181.677
		c0,13.661-11.113,24.774-24.774,24.774c-13.661,0-24.774-11.113-24.774-24.774v-24.774c0-13.661,11.113-24.774,24.774-24.774
		c13.661,0,24.774,11.113,24.774,24.774V181.677z"/>
	<path style="fill:#E6646E;" d="M189.945,115.613c-4.565,0-8.258,3.694-8.258,8.258v57.806c0,13.661-11.113,24.774-24.774,24.774
		c-7.105,0-13.879-3.065-18.589-8.403c-3.024-3.411-8.234-3.734-11.661-0.726c-3.419,3.016-3.742,8.242-0.726,11.661
		c7.847,8.887,19.137,13.984,30.976,13.984c22.766,0,41.29-18.524,41.29-41.29v-57.806
		C198.202,119.306,194.509,115.613,189.945,115.613z"/>
	<path style="fill:#E6646E;" d="M373.428,162.482c3.969-4.95,6.444-11.144,6.444-17.966c0-15.935-12.968-28.903-28.903-28.903
		h-28.903c-4.565,0-8.258,3.694-8.258,8.258v90.839c0,4.565,3.694,8.258,8.258,8.258h33.032c18.218,0,33.032-14.815,33.032-33.032
		C388.131,178.497,382.284,168.413,373.428,162.482z M330.324,132.129h20.645c6.831,0,12.387,5.556,12.387,12.387
		s-5.556,12.387-12.387,12.387h-20.645V132.129z M355.099,206.452h-24.774V173.42h20.645h4.129c9.105,0,16.516,7.411,16.516,16.516
		S364.203,206.452,355.099,206.452z"/>
</g>
<g>
	<path style="fill:#DBD9DC;" d="M441.096,86.001L359.934,4.838c-1.407-1.407-3.062-2.491-4.837-3.302v64.528
		c0,4.561-3.697,8.258-8.258,8.258H123.87c-4.565,0-8.258,3.694-8.258,8.258s3.694,8.258,8.258,8.258h320.528
		C443.588,89.063,442.503,87.408,441.096,86.001z"/>
	<path style="fill:#DBD9DC;" d="M388.129,264.258H123.87c-4.565,0-8.258-3.694-8.258-8.258s3.694-8.258,8.258-8.258h264.258
		c4.565,0,8.258,3.694,8.258,8.258S392.694,264.258,388.129,264.258z"/>
</g>
<g>
	<path style="fill:#867E88;" d="M231.225,322.065H123.87c-4.565,0-8.258-3.694-8.258-8.258s3.694-8.258,8.258-8.258h107.355
		c4.565,0,8.258,3.694,8.258,8.258S235.789,322.065,231.225,322.065z"/>
	<path style="fill:#867E88;" d="M231.225,404.645H123.87c-4.565,0-8.258-3.694-8.258-8.258s3.694-8.258,8.258-8.258h107.355
		c4.565,0,8.258,3.694,8.258,8.258S235.789,404.645,231.225,404.645z"/>
</g>
<g>
	<path style="fill:#6F6571;" d="M140.387,363.355H123.87c-4.565,0-8.258-3.694-8.258-8.258s3.694-8.258,8.258-8.258h16.516
		c4.565,0,8.258,3.694,8.258,8.258S144.952,363.355,140.387,363.355z"/>
	<path style="fill:#6F6571;" d="M231.225,363.355h-57.806c-4.565,0-8.258-3.694-8.258-8.258s3.694-8.258,8.258-8.258h57.806
		c4.565,0,8.258,3.694,8.258,8.258S235.789,363.355,231.225,363.355z"/>
</g>
<g>
	<path style="fill:#867E88;" d="M388.129,363.355H280.773c-4.565,0-8.258-3.694-8.258-8.258s3.694-8.258,8.258-8.258h107.355
		c4.565,0,8.258,3.694,8.258,8.258S392.694,363.355,388.129,363.355z"/>
	<path style="fill:#867E88;" d="M388.129,445.935H280.773c-4.565,0-8.258-3.694-8.258-8.258s3.694-8.258,8.258-8.258h107.355
		c4.565,0,8.258,3.694,8.258,8.258S392.694,445.935,388.129,445.935z"/>
</g>
<g>
	<path style="fill:#6F6571;" d="M338.581,322.065h-57.806c-4.565,0-8.258-3.694-8.258-8.258s3.694-8.258,8.258-8.258h57.806
		c4.565,0,8.258,3.694,8.258,8.258S343.145,322.065,338.581,322.065z"/>
	<path style="fill:#6F6571;" d="M388.129,322.065h-16.516c-4.565,0-8.258-3.694-8.258-8.258s3.694-8.258,8.258-8.258h16.516
		c4.565,0,8.258,3.694,8.258,8.258S392.694,322.065,388.129,322.065z"/>
	<path style="fill:#6F6571;" d="M388.129,404.645h-49.548c-4.565,0-8.258-3.694-8.258-8.258s3.694-8.258,8.258-8.258h49.548
		c4.565,0,8.258,3.694,8.258,8.258S392.694,404.645,388.129,404.645z"/>
	<path style="fill:#6F6571;" d="M305.548,404.645h-24.774c-4.565,0-8.258-3.694-8.258-8.258s3.694-8.258,8.258-8.258h24.774
		c4.565,0,8.258,3.694,8.258,8.258S310.113,404.645,305.548,404.645z"/>
	<path style="fill:#6F6571;" d="M173.419,445.935H123.87c-4.565,0-8.258-3.694-8.258-8.258s3.694-8.258,8.258-8.258h49.548
		c4.565,0,8.258,3.694,8.258,8.258S177.983,445.935,173.419,445.935z"/>
	<path style="fill:#6F6571;" d="M231.225,445.935h-24.774c-4.565,0-8.258-3.694-8.258-8.258s3.694-8.258,8.258-8.258h24.774
		c4.565,0,8.258,3.694,8.258,8.258S235.789,445.935,231.225,445.935z"/>
</g>
<g>
</g>
<g>
</g>
<g>
</g>
<g>
</g>
<g>
</g>
<g>
</g>
<g>
</g>
<g>
</g>
<g>
</g>
<g>
</g>
<g>
</g>
<g>
</g>
<g>
</g>
<g>
</g>
<g>
</g>
</svg>
