<svg xmlns="http://www.w3.org/2000/svg" viewBox="0 0 497.4 497.4"><path d="M418.149 62.4l-168-9.6c-8-.8-15.2 2.4-20.8 8L16.549 260c-10.4 10.4-16.8 35.2-6.4 46.4l183.2 183.2c10.4 10.4 28 10.4 39.2 0l212.8-212.8c5.6-5.6 8.8-12.8 8-20.8l-9.6-171.2c-.8-13.6-12-21.6-25.6-22.4z" fill="#ed2100"/><path d="M418.149 48.8l-168-9.6c-8-.8-15.2 2.4-20.8 8L16.549 260c-10.4 10.4-10.4 28 0 39.2l176.8 176.8c10.4 10.4 28 10.4 39.2 0l212.8-212.8c5.6-5.6 8.8-12.8 8-20.8l-9.6-167.2c-.8-14.4-12-25.6-25.6-26.4z" fill="#ff5b00"/><path d="M193.349 476c10.4 10.4 28 10.4 39.2 0l212.8-212.8c5.6-5.6 8.8-12.8 8-20.8l-9.6-167.2c-.8-13.6-12-24.8-25.6-25.6l-168-10.4c-8-.8-15.2 2.4-20.8 8" fill="#ea5206"/><path d="M407.749 129.6c0 24.8-20 58.4-45.6 58.4-24.8 0-45.6-33.6-45.6-58.4s20-45.6 45.6-45.6 45.6 20.8 45.6 45.6z" fill="#dd4503"/><circle cx="362.949" cy="129.6" r="45.6" fill="#db2305"/><path d="M330.949 97.6c17.6-17.6 46.4-17.6 64 0s17.6 46.4 0 64" fill="#bf1200"/><circle cx="362.949" cy="129.6" r="27.2" fill="#ebf0f2"/><path d="M382.149 110.4c10.4 10.4 10.4 27.2 0 37.6s-27.2 10.4-37.6 0" fill="#cadfe5"/><g fill="#435956"><path d="M490.149 12.8c3.2-3.2 3.2-7.2 0-10.4s-7.2-3.2-10.4 0l-122.4 122.4c-3.2 3.2-3.2 7.2 0 10.4s12.8 8.8 16 5.6l116.8-128z" opacity=".3"/><path d="M490.149 12.8c3.2-3.2 3.2-7.2 0-10.4s-7.2-3.2-10.4 0l-122.4 122.4c-3.2 3.2-3.2 7.2 0 10.4s7.2 3.2 10.4 0l122.4-122.4z"/></g><path d="M357.349 135.2c3.2 3.2 7.2 3.2 10.4 0l122.4-122.4c3.2-3.2 3.2-7.2 0-10.4" fill="#314441"/><path d="M338.949 307.2c4.8 4.8 4.8 12 0 16.8l-117.6 117.6c-4.8 4.8-12 4.8-16.8 0L50.949 288c-4.8-4.8-4.8-12 0-16.8l117.6-117.6c4.8-4.8 12-4.8 16.8 0l153.6 153.6z" fill="#ebf0f2"/><path d="M338.949 307.2l-121.6-120.8-20.8 248 8 8c4.8 4.8 12 4.8 16.8 0l117.6-117.6c4.8-5.6 4.8-12.8 0-17.6z" fill="#cadfe5"/></svg>