<svg xmlns="http://www.w3.org/2000/svg" viewBox="0 0 512 512"><path d="M348.256.001L74.322 0a8.258 8.258 0 0 0-8.258 8.258v495.484A8.258 8.258 0 0 0 74.322 512h363.355a8.258 8.258 0 0 0 8.258-8.258l-.001-406.062c0-4.38-1.74-8.581-4.837-11.679L359.935 4.838A16.521 16.521 0 0 0 348.256.001z" fill="#edebed"/><path d="M256.001 115.613c-22.766 0-41.29 18.524-41.29 41.29v24.774c0 22.766 18.524 41.29 41.29 41.29s41.29-18.524 41.29-41.29v-24.774c.001-22.766-18.523-41.29-41.29-41.29zm24.775 66.064c0 13.661-11.113 24.774-24.774 24.774-13.661 0-24.774-11.113-24.774-24.774v-24.774c0-13.661 11.113-24.774 24.774-24.774 13.661 0 24.774 11.113 24.774 24.774v24.774zm-90.831-66.064a8.253 8.253 0 0 0-8.258 8.258v57.806c0 13.661-11.113 24.774-24.774 24.774a24.807 24.807 0 0 1-18.589-8.403c-3.024-3.411-8.234-3.734-11.661-.726-3.419 3.016-3.742 8.242-.726 11.661a41.347 41.347 0 0 0 30.976 13.984c22.766 0 41.29-18.524 41.29-41.29v-57.806a8.254 8.254 0 0 0-8.258-8.258zm183.483 46.869c3.969-4.95 6.444-11.144 6.444-17.966 0-15.935-12.968-28.903-28.903-28.903h-28.903a8.253 8.253 0 0 0-8.258 8.258v90.839a8.253 8.253 0 0 0 8.258 8.258h33.032c18.218 0 33.032-14.815 33.032-33.032.001-11.439-5.846-21.523-14.702-27.454zm-43.104-30.353h20.645c6.831 0 12.387 5.556 12.387 12.387s-5.556 12.387-12.387 12.387h-20.645v-24.774zm24.775 74.323h-24.774V173.42h24.774c9.105 0 16.516 7.411 16.516 16.516s-7.412 16.516-16.516 16.516z" fill="#e6646e"/><path d="M441.096 86.001L359.934 4.838c-1.407-1.407-3.062-2.491-4.837-3.302v64.528a8.258 8.258 0 0 1-8.258 8.258H123.87c-4.565 0-8.258 3.694-8.258 8.258s3.694 8.258 8.258 8.258h320.528c-.81-1.775-1.895-3.43-3.302-4.837zm-52.967 178.257H123.87c-4.565 0-8.258-3.694-8.258-8.258s3.694-8.258 8.258-8.258h264.258c4.565 0 8.258 3.694 8.258 8.258s-3.692 8.258-8.257 8.258z" fill="#dbd9dc"/><path d="M231.225 322.065H123.87c-4.565 0-8.258-3.694-8.258-8.258s3.694-8.258 8.258-8.258h107.355c4.565 0 8.258 3.694 8.258 8.258s-3.694 8.258-8.258 8.258zm0 82.58H123.87c-4.565 0-8.258-3.694-8.258-8.258s3.694-8.258 8.258-8.258h107.355c4.565 0 8.258 3.694 8.258 8.258s-3.694 8.258-8.258 8.258z" fill="#867e88"/><path d="M140.387 363.355H123.87c-4.565 0-8.258-3.694-8.258-8.258s3.694-8.258 8.258-8.258h16.516c4.565 0 8.258 3.694 8.258 8.258s-3.692 8.258-8.257 8.258zm90.838 0h-57.806c-4.565 0-8.258-3.694-8.258-8.258s3.694-8.258 8.258-8.258h57.806c4.565 0 8.258 3.694 8.258 8.258s-3.694 8.258-8.258 8.258z" fill="#6f6571"/><path d="M388.129 363.355H280.773c-4.565 0-8.258-3.694-8.258-8.258s3.694-8.258 8.258-8.258h107.355c4.565 0 8.258 3.694 8.258 8.258s-3.692 8.258-8.257 8.258zm0 82.58H280.773c-4.565 0-8.258-3.694-8.258-8.258s3.694-8.258 8.258-8.258h107.355c4.565 0 8.258 3.694 8.258 8.258s-3.692 8.258-8.257 8.258z" fill="#867e88"/><path d="M338.581 322.065h-57.806c-4.565 0-8.258-3.694-8.258-8.258s3.694-8.258 8.258-8.258h57.806c4.565 0 8.258 3.694 8.258 8.258s-3.694 8.258-8.258 8.258zm49.548 0h-16.516c-4.565 0-8.258-3.694-8.258-8.258s3.694-8.258 8.258-8.258h16.516c4.565 0 8.258 3.694 8.258 8.258s-3.693 8.258-8.258 8.258zm0 82.58h-49.548c-4.565 0-8.258-3.694-8.258-8.258s3.694-8.258 8.258-8.258h49.548c4.565 0 8.258 3.694 8.258 8.258s-3.693 8.258-8.258 8.258zm-82.581 0h-24.774c-4.565 0-8.258-3.694-8.258-8.258s3.694-8.258 8.258-8.258h24.774c4.565 0 8.258 3.694 8.258 8.258s-3.693 8.258-8.258 8.258zm-132.129 41.29H123.87c-4.565 0-8.258-3.694-8.258-8.258s3.694-8.258 8.258-8.258h49.548c4.565 0 8.258 3.694 8.258 8.258s-3.693 8.258-8.257 8.258zm57.806 0h-24.774c-4.565 0-8.258-3.694-8.258-8.258s3.694-8.258 8.258-8.258h24.774c4.565 0 8.258 3.694 8.258 8.258s-3.694 8.258-8.258 8.258z" fill="#6f6571"/></svg>