<svg xmlns="http://www.w3.org/2000/svg" viewBox="0 0 511.999 511.999"><path d="M363.354 140.386v-30c0-57.806-44.423-107.545-102.165-110.264-61.65-2.903-112.545 46.221-112.545 107.232v33.032c0 55.575-9.235 88.063-13.894 100.917-1.389 3.831.276 8.072 3.874 9.986 16.456 8.754 61.291 31.148 100.859 37.742h33.032c39.568-6.595 84.403-28.989 100.859-37.742 3.598-1.914 5.262-6.155 3.874-9.986-4.659-12.854-13.894-45.342-13.894-100.917z" fill="#5c414b"/><path d="M148.644 107.354v33.032c0 55.573-9.234 88.06-13.893 100.915-1.393 3.843.308 8.09 3.917 10.008 15.352 8.158 55.226 28.083 92.556 36.114V123.87l-16.516-16.516c-27.471-27.471-29.331-62.166-27.515-82.37-23.549 19.692-38.549 49.27-38.549 82.37z" fill="#503441"/><path fill="#e6af78" d="M214.709 231.229h82.58v107.36h-82.58z"/><path d="M375.229 308.583l-43.965-19.551-58.749 24.774-9.645 14.467c-3.269 4.903-10.473 4.903-13.742 0l-9.645-14.467-57.85-24.774-43.965 19.551a49.547 49.547 0 0 0-29.396 46.644l4.339 156.772h287.675l4.339-156.772a49.548 49.548 0 0 0-29.396-46.644z" fill="#ffdc64"/><path d="M163.509 371.612l-41.486-51.857c-8.932 9.378-14.123 22.013-13.751 35.472l4.339 156.772h50.898V371.612zm185.879 0l41.486-51.857c8.932 9.378 14.124 22.013 13.751 35.472l-4.339 156.772h-50.898V371.612z" fill="#fff082"/><path d="M214.709 255.212c12.635 5.802 26.63 9.045 41.29 9.045 14.661 0 28.656-3.242 41.29-9.045v-23.987h-82.58v23.987z" fill="#d29b6e"/><path d="M334.217 191.202a74.48 74.48 0 0 0 3.51-20.667c1.219-47.528-65.345-36.399-120.03-72.38-3.81-2.507-8.888-1.708-11.492 2.037-8.641 12.432-18.421 22.261-24.188 27.566a16.49 16.49 0 0 1-11.196 4.369h-5.942c-.005 0-.008.003-.013.003-.906.017-1.833.112-2.776.295-8.037 1.556-13.447 9.246-13.447 17.432v5.974c0 7.9 5.058 15.353 12.751 17.147a16.37 16.37 0 0 0 5.031.39c4.106-.328 7.691 2.66 8.43 6.712 7.021 38.477 40.637 67.661 81.143 67.661 34.424 0 63.805-21.112 76.182-51.059.597-1.458 1.919-5.125 2.037-5.48z" fill="#f0c087"/><path d="M206.45 165.16V99.887c-8.704 12.575-18.617 22.522-24.432 27.872a16.49 16.49 0 0 1-11.196 4.369h-5.942c-.005 0-.008.003-.013.003-.905.017-1.83.112-2.771.294-8.037 1.553-13.453 9.236-13.453 17.422v5.984c0 7.899 5.057 15.351 12.75 17.147 1.732.404 3.418.519 5.032.39 4.106-.328 7.691 2.66 8.43 6.712 7.021 38.477 40.637 67.661 81.143 67.661 5.615 0 11.078-.613 16.375-1.681-37.622-7.707-65.923-40.998-65.923-80.9z" fill="#e6af78"/><path d="M437.676 511.999H74.322c-4.565 0-8.258-3.698-8.258-8.258s3.694-8.258 8.258-8.258h363.355c4.565 0 8.258 3.698 8.258 8.258s-3.694 8.258-8.259 8.258z" fill="#c39772"/><path d="M197.6 320.879l-15.924-31.848 17.948-15.33c3.674-3.139 9.247-2.465 12.068 1.458l27.791 38.647-17.2 12.9c-8.244 6.182-20.074 3.39-24.683-5.827zm116.798 0l15.924-31.848-17.948-15.33c-3.674-3.139-9.247-2.465-12.068 1.458l-27.791 38.647 17.2 12.9c8.244 6.182 20.074 3.39 24.683-5.827z" fill="#fff082"/><path d="M347.781 495.483H164.217c-8.745 0-15.974-6.816-16.488-15.546l-6.315-107.355c-.558-9.487 6.985-17.486 16.488-17.486h196.193c9.503 0 17.046 7.999 16.488 17.486l-6.315 107.355c-.513 8.729-7.742 15.546-16.487 15.546z" fill="#dbd9dc"/><circle cx="255.999" cy="429.419" r="20.645" fill="#fff"/></svg>